<?xml version="1.0" encoding="utf-8"?>
<!DOCTYPE svg PUBLIC "-//W3C//DTD SVG 1.0//EN" "http://www.w3.org/TR/2001/REC-SVG-20010904/DTD/svg10.dtd">
<svg version="1.0" xmlns="http://www.w3.org/2000/svg" width="1001px" height="1001px" viewBox="0 0 1001 1001" preserveAspectRatio="xMidYMid meet">
 <g fill="#000000">
  <path d="M390.8 960.9 c-1.7 -1.8 -1.8 -8.7 -1.8 -114.4 0 -111.3 0 -112.4 -2 -113.5 -1.9 -1 -81.3 -34.2 -197.5 -82.5 -27.5 -11.5 -50.6 -21.3 -51.3 -21.8 -1.6 -1.3 -1.5 -5.2 0.2 -6.6 0.7 -0.6 2.4 -1.2 3.7 -1.3 1.3 -0.1 45.8 18 98.9 40.1 53.1 22.2 109.3 45.7 125 52.2 l28.5 11.9 5.5 -2.1 c11 -4.2 77.5 -32.1 78.2 -32.8 0.8 -0.7 -18.8 -8.7 -175.7 -72.2 -45.1 -18.2 -82.4 -33.5 -82.9 -34 -1.3 -1.2 1.9 -4 6.1 -5.5 3.4 -1.3 -7.6 -5.6 196.8 77.3 37.4 15.2 68.7 27.8 69.5 28 0.8 0.2 21.4 -7.9 45.7 -18.1 33 -13.9 45.1 -18.6 48.2 -18.6 4.1 0 4.1 0 4.1 3.8 l0 3.7 -92.2 38.7 c-50.8 21.2 -94.1 39.2 -96.3 40 l-4 1.4 -0.2 112.9 c-0.3 104.8 -0.4 113.1 -2 114.3 -2.1 1.5 -2.4 1.5 -4.5 -0.9z"/>
  <path d="M640.7 834 c-10.1 -11.2 -22.1 -30.3 -38.8 -62 -6.9 -13.1 -12.5 -22.7 -12.7 -21.7 -1.1 5.4 -6.2 -3.2 -6.2 -10.5 0 -4.4 1.8 -6 6.2 -5.6 2.6 0.2 3.6 1 5 3.8 7.3 15.4 18.4 37 22.1 43.1 2.4 4.1 5.7 9.9 7.2 12.9 3.1 6.2 16 25.8 20.2 30.8 2.6 3 3 3.2 6.3 2.2 1.9 -0.5 15.7 -2.5 30.5 -4.5 14.9 -1.9 28.7 -3.7 30.9 -4.1 l3.9 -0.6 -20.1 -13.2 c-11 -7.2 -22.2 -14.4 -24.9 -16.1 l-4.8 -3 -1.7 -9 c-0.9 -4.9 -2.9 -15.3 -4.4 -23 -1.4 -7.6 -5 -21.1 -7.9 -30 -3 -8.8 -6.5 -19.9 -7.9 -24.6 -1.5 -4.9 -3.3 -8.9 -4.1 -9.3 -3 -1.1 -1.2 -14.6 2 -14.6 1.8 0 14 -26.1 21.1 -45.5 14.3 -39.1 28.9 -82.4 27.9 -83.3 -0.1 -0.2 -3.1 1.4 -6.6 3.6 -3.5 2.1 -11.4 6.7 -17.6 10.1 -9.7 5.4 -11.8 6.2 -15.5 5.9 -4.2 -0.3 -4.3 -0.4 -4.6 -4.1 -0.2 -2.1 0.2 -4.5 0.8 -5.2 0.7 -0.8 4.6 -3.3 8.8 -5.6 18 -9.8 44.2 -27.3 69.9 -46.6 10.9 -8.1 39.2 -26.8 53.3 -35.2 9.3 -5.4 11 -6.9 14.1 -11.9 13.2 -21.3 26.7 -75.1 38.3 -152.8 6.1 -41.1 8.8 -73 8.9 -107.4 0.1 -18.5 -0.3 -25.1 -1.6 -30.9 -0.9 -4.1 -2.1 -7.9 -2.5 -8.3 -0.5 -0.5 -6.4 1.2 -13.3 3.8 -6.8 2.6 -21.6 7.7 -32.9 11.4 -11.3 3.7 -25.8 9.3 -32.2 12.4 -12 5.7 -18.5 7.6 -26.7 7.6 -8.6 0 -38.6 -5 -56.1 -9.4 -9.6 -2.4 -17.7 -4.2 -17.9 -4 -0.5 0.4 16.7 20.6 24.8 29.3 5.2 5.5 6.1 7 6.1 10.1 0 2 -0.5 4.1 -1.2 4.8 -2 2 -7.4 1.4 -10.5 -1.2 l-2.9 -2.5 3.7 10.7 c6.7 19.6 8.3 30.3 8.2 57.7 0 21.7 -0.3 25.2 -2.6 36.5 -8.6 42.2 -30.4 72.5 -57.2 79.5 -7.4 1.9 -22.3 1.9 -29.4 0 -28.1 -7.4 -50.1 -39.1 -58.1 -83.5 -1.9 -10.5 -2.3 -15.9 -2.2 -33.5 0 -18.3 0.3 -22.6 2.6 -34 9.4 -48 32.7 -78.2 63.9 -82.6 12.2 -1.8 22.5 -0.3 33 4.9 l7.7 3.8 0 -2.6 c0 -2.5 -0.7 -2.9 -9.7 -6 -18.9 -6.4 -49.9 -18.2 -57.8 -22 -4.4 -2.2 -12.3 -7.1 -17.5 -11 -5.2 -3.9 -13.5 -9.6 -18.5 -12.7 -4.9 -3.1 -15.3 -9.8 -23 -14.8 -7.7 -5.1 -17.1 -11 -20.9 -13.1 l-6.9 -3.8 0.6 9.3 c0.9 11.9 4.8 29.4 9.9 43.8 2.7 7.9 3.8 12.5 3.6 15.5 -0.3 4.3 -0.3 4.3 -4.4 4.6 -3.5 0.3 -5.3 -0.4 -11.5 -4.4 -18.1 -11.5 -43.4 -27.2 -43.5 -27.1 -0.4 0.6 10.3 61.7 10.9 62.3 1.7 1.7 0.6 10 -1.9 14.8 -1.4 2.7 -3.6 7.6 -4.9 11 -2.5 6.7 -19.1 59.6 -25 79.6 -2 6.9 -7.4 24 -12 38 -4.6 14 -10.2 32.7 -12.4 41.5 -5.4 21.3 -9.6 35.4 -17 57 -3.5 9.9 -9.8 30.2 -14.1 45 -4.4 14.9 -11.9 39 -16.8 53.7 -8.5 25.7 -8.8 26.8 -6.8 27.4 1.1 0.4 6.5 3.1 11.9 6 5.4 3 15.5 8.4 22.5 12.1 7 3.6 13.2 6.9 13.7 7.3 2.6 1.9 40.1 20.3 48.7 23.8 20.4 8.5 43.1 14.6 65.8 17.7 11.2 1.5 40.2 3.6 40.8 3 0.5 -0.5 -10.8 -18.8 -17.9 -29.3 -17 -25.1 -45.6 -56.5 -66.5 -73.2 -14.2 -11.3 -29.1 -18.4 -45.5 -21.5 -4.6 -0.8 -8.7 -2.1 -9.1 -2.8 -1.2 -1.9 -0.9 -7.2 0.4 -8.5 1.7 -1.7 7 -1.5 17.3 0.9 5 1.1 9.6 2.1 10.4 2.2 1.2 0.2 2.2 -4.7 4.7 -22.8 3.7 -26.2 7.4 -43.2 10.7 -49 2.2 -3.9 2.4 -4 7.7 -4 l5.5 0 0.3 3.9 c0.2 2.7 -0.2 4.4 -1.6 6 -2.1 2.3 -4.3 8.4 -6.7 19 -1.6 7 -7.5 46.5 -7.5 50.1 0 1.5 1.9 3.2 6.8 6 10.8 6.3 18.7 12.6 35 28.2 24.9 23.7 39.7 42.5 64.1 81.6 8.7 13.8 9.2 15 8.9 19.5 l-0.3 4.7 -7 0.3 c-10.9 0.5 -44.8 -1.6 -59.1 -3.7 -24.1 -3.6 -45.4 -9.4 -65.9 -18.1 -10.3 -4.3 -52.8 -25.7 -69.5 -35 -5.2 -2.9 -15.1 -8.1 -22.1 -11.6 -7 -3.5 -13 -7.1 -13.3 -8 -1.3 -3.3 -0.6 -7.4 1.4 -8.6 1.1 -0.7 2 -1.9 2 -2.6 0 -0.8 0.8 -1 2.3 -0.7 2.1 0.6 2.6 0 4.4 -4.7 3.7 -9.7 18.1 -55 23.8 -74.8 3.1 -10.7 9.6 -31.4 14.5 -46 4.9 -14.6 11.6 -37.1 15 -50 3.3 -12.9 8.8 -31.6 12.1 -41.5 3.3 -9.9 9.6 -29.7 13.9 -44 13.2 -44 24 -77.6 27.2 -84.5 1.9 -4.2 2.9 -8.1 2.9 -11 0 -6 -12.6 -80.2 -14 -82.8 -1.4 -2.5 -1.4 -5.2 -0.1 -5.2 0.5 0 4 3 7.8 6.7 4.6 4.6 12.4 10.3 23.8 17.5 17.3 10.9 28.9 17.8 29.7 17.8 0.3 0 -1 -4.6 -2.8 -10.2 -5.7 -17.5 -7.6 -28.6 -8.2 -47.1 -0.4 -13 -0.3 -16.7 0.7 -16.7 2.4 0 25.5 13.2 41 23.4 8.5 5.7 18.9 12.4 23 15 4.1 2.5 11.8 7.8 17 11.6 5.2 3.8 12.7 8.5 16.5 10.4 12.5 6 59.8 23.3 82.5 30.1 22.4 6.7 53.9 12.6 68 12.9 7.3 0.1 7.9 -0.1 23 -7 8.5 -4 22.3 -9.3 30.5 -11.9 8.3 -2.6 24 -8.1 35 -12.2 22.8 -8.5 21 -8.7 24.6 2.7 3.6 11.4 4.4 28.1 3.1 59.6 -1.7 39.2 -4.2 63.5 -11.2 106.9 -11.1 68.5 -20.6 106.4 -33.7 133.5 l-5.6 11.5 -7 3.9 c-14.8 8.1 -51.5 32.2 -62.2 41 -2.6 2.2 -2.7 2.4 -0.7 1.9 1.5 -0.4 2.2 -0.1 2.2 0.9 0 0.9 0.9 8.2 2 16.4 3.2 23.3 4.9 46 5.2 69.5 l0.2 21.7 -5.4 4.7 c-6.4 5.5 -17.4 11.2 -36.1 18.8 -26 10.6 -31.4 12.9 -32.4 13.8 -0.5 0.5 -1.7 0.9 -2.6 0.9 -1.2 0 -3.5 3.3 -7.2 10.4 l-5.5 10.5 2.9 10.3 c1.6 5.7 5.2 17.1 7.9 25.3 5.7 17.3 8.1 26.8 11 44.9 1.2 7.1 2.6 13.9 3 15.1 0.5 1.2 4.1 4.1 8.2 6.5 4 2.4 14.1 8.9 22.4 14.5 8.3 5.6 17.8 11.6 21 13.4 8 4.2 12.2 7.7 10.9 8.9 -0.9 1 -9.5 2.3 -57.5 8.7 -22.5 3 -26.7 3.9 -29.6 6.6 l-2.1 2 -4.6 -5.1z m46 -191.8 c22 -9 30.7 -13.3 37 -18.5 l5.3 -4.2 0 -17 c0 -9.3 -0.5 -22.6 -1 -29.5 -1.3 -16.4 -5.1 -47.3 -5.9 -48.3 -0.4 -0.4 -3.3 1.1 -6.3 3.3 -5.4 3.8 -5.8 4.5 -9.6 14.3 -7.3 18.6 -7.3 18.6 -6.2 29.4 0.5 5.4 1 12.6 1 15.9 l0 6.1 -7.6 8.4 c-4.2 4.6 -8.7 9.6 -10 11 -1.8 2 -14.4 33 -14.4 35.4 0 0.8 0.4 0.7 17.7 -6.3z m6.9 -58.5 c-0.3 -2.9 -0.6 -6.9 -0.6 -8.9 0 -2.1 -0.3 -3.8 -0.8 -3.8 -0.5 0 -7.4 18.8 -11 30.4 -0.2 0.6 2.7 -2 6.3 -5.7 l6.8 -6.8 -0.7 -5.2z m6.9 -50.5 c-0.2 -0.3 -1.1 0.1 -2 0.8 -1.2 1 -1.3 1.6 -0.3 2.7 1 1.3 1.3 1.1 2 -0.8 0.5 -1.2 0.6 -2.4 0.3 -2.7z m-80.4 -140.2 c24.6 -7.6 44.1 -36.2 52 -76.5 3.2 -15.8 3.1 -41.5 0 -57 -4.8 -23.7 -13.7 -44.1 -25.1 -57.3 -14.9 -17.3 -31.8 -23.8 -47.5 -18.3 -30.2 10.7 -52.5 54.5 -52.7 103.6 -0.1 50.4 23.1 95.7 54 105.6 7.4 2.3 11.6 2.3 19.3 -0.1z"/>
  <path d="M587.4 329.5 c-0.4 -0.8 -0.4 -11.1 -0.2 -22.8 0.5 -20.5 1.8 -32.7 5.6 -51.9 l1.7 -8.3 5 0 c4.9 0 5 0.1 5.3 3.3 0.2 1.8 -0.1 3.2 -0.7 3.2 -0.6 0 -1.1 -0.4 -1.1 -1 0 -0.5 -0.4 -1 -1 -1 -0.5 0 -1 1.5 -0.9 3.3 0 2.6 0.2 2.9 0.9 1.2 0.7 -1.8 0.8 -1.9 1.5 -0.2 0.4 0.9 0 5.4 -0.9 9.9 -1.9 9.5 -3.5 28.2 -3.6 41.4 0 5 -0.3 12.5 -0.6 16.7 l-0.7 7.7 -4.9 0 c-3.4 0 -5 -0.4 -5.4 -1.5z"/>
  <path d="M214 809.4 c-19.1 -4.9 -29.8 -8.9 -46 -17.1 -19.9 -10 -30 -17.1 -30 -20.9 0 -1.9 -2.4 -5 -9.7 -12.3 -10.6 -10.6 -15.6 -18 -20.4 -30.5 -4.5 -11.8 -5.2 -17.7 -3.4 -29.7 0.8 -5.5 2.4 -12 3.4 -14.5 4.9 -10.9 19.2 -27.8 27.2 -31.9 1.6 -0.9 2.9 -2.2 2.9 -3.1 0 -0.9 0.7 -1.4 1.8 -1.2 1.3 0.2 1.8 1.5 2 5 0.3 4.5 0.1 4.8 -3.5 7.1 -5.6 3.5 -15.6 14.6 -20.3 22.5 -5.1 8.6 -7.5 18.9 -6.5 28.2 1.2 11.2 7.6 25.5 15.9 35.4 5.2 6.3 19.7 18.4 30.3 25.3 12.9 8.4 35.2 18.7 50.2 23.2 7.4 2.3 13.6 4 13.7 3.8 0.1 -0.1 -5.1 -4.2 -11.6 -9 -12.5 -9.4 -34.3 -28.9 -44.9 -40.2 -6.7 -7.3 -16.6 -20.1 -25.3 -33.2 l-5.3 -7.8 -4.4 0.3 c-5.3 0.4 -6.2 -0.7 -5.9 -6.5 0.1 -2.3 -0.1 -4.5 -0.5 -4.9 -0.4 -0.4 -0.7 -2.7 -0.7 -5.1 0 -4.2 0.2 -4.4 4.4 -6.2 3.1 -1.4 4.5 -2.7 5 -4.5 0.6 -2.4 1.1 -2.6 5.7 -2.6 l5 0 -0.2 8.9 -0.3 8.9 7.4 10.9 c4 5.9 9.8 14.2 12.8 18.3 6.7 9.3 33.2 35.6 47.3 46.9 15.7 12.7 35.2 25.1 39.3 25.1 1.8 0 2.9 3.5 2.4 7.6 -0.2 2.2 -1.2 3.4 -3.8 4.6 -5.5 2.8 -21.9 2.4 -34 -0.8z"/>
  <path d="M629.5 531.4 c-9.2 -1.9 -14.9 -4.5 -26.3 -12.1 -15.2 -10.2 -24.6 -19.9 -42.3 -44 -26.2 -35.7 -40.9 -63.4 -55.4 -104.6 -1.5 -4.3 -3.1 -7.6 -3.5 -7.5 -2.1 0.8 -9.2 10.9 -14.9 21.2 l-6.3 11.6 -4.9 0 -4.9 0 0 -6 c0 -13.5 9.2 -45.7 17.9 -62.7 1.8 -3.6 1.8 -4.3 0.5 -10.2 -0.8 -3.5 -1.4 -8.7 -1.2 -11.5 l0.3 -5.1 4.9 0 4.9 0 1.7 8.5 c5.5 26.9 22 73.9 36 102 9 18.2 30.2 50.6 46.8 71.5 13 16.4 36.4 34 49.1 36.9 3.8 0.9 8.1 1.6 9.4 1.6 1.4 0 2.8 0.7 3.1 1.6 1 2.6 0.7 6.9 -0.6 8.2 -1.1 1.1 -9.8 1.5 -14.3 0.6z"/>
  <path d="M761.5 390.3 c-7 -1.9 -15.8 -9 -21.5 -17.3 -11.5 -16.9 -16.4 -35.6 -16.4 -63.5 0 -27.2 5.3 -47.6 16.5 -63.6 11.9 -16.8 31.6 -22.5 47.9 -13.8 8 4.2 14.7 11.7 20.3 22.6 9 17.6 12.3 35.2 11.4 60.8 -0.7 18.3 -2.8 29.1 -8.1 42.1 -4.4 10.9 -8.3 16.9 -15 23.2 -8.2 7.8 -12.4 9.5 -23.6 9.8 -5.2 0.2 -10.4 0 -11.5 -0.3z m17 -12.7 c14.7 -7 25.6 -27.1 29.5 -54.1 1.4 -9.8 1.2 -18.4 -0.5 -29.8 -3.8 -25.2 -14.2 -44.4 -27.9 -51.4 -6.3 -3.2 -10.5 -3.2 -16.3 0.2 -28.7 16.9 -37.9 76.2 -17.7 114.6 4.8 9.2 12.1 17.1 18.6 20.3 6.4 3.2 8 3.2 14.3 0.2z"/>
  <path d="M756.2 341.8 c-2.7 -3.3 -2.3 -31.2 0.9 -57.8 1.4 -12.6 1.2 -12.1 7.2 -11.8 l5.2 0.3 0 6 c0 3.3 -0.6 12.3 -1.3 20.1 -0.6 7.7 -1.2 20 -1.2 27.3 0 7.3 -0.5 14.1 -1 15.2 -1.2 2.2 -8.1 2.7 -9.8 0.7z"/>
  <path d="M726.7 223.3 c-1.2 -1.1 -0.7 -8 0.6 -9.1 0.7 -0.6 7.8 -1.8 15.7 -2.6 8 -0.9 19.1 -2.3 24.6 -3.2 5.6 -0.8 12.1 -1.4 14.5 -1.2 l4.4 0.3 0.3 4.9 c0.4 5.7 -0.5 6.6 -6.3 6.6 -2.2 0 -8.7 0.6 -14.5 1.4 -24.8 3.4 -37.9 4.4 -39.3 2.9z"/>
 </g>
 <g fill="#479d43">
  <path d="M662.5 654.4 c0.4 -1.1 4 -10.8 8.1 -21.8 4.1 -10.9 8.5 -21 9.8 -22.5 1.3 -1.4 5.8 -6.4 10 -11 4.4 -4.9 7.6 -9.3 7.6 -10.5 0 -1.1 -0.5 -8 -1.1 -15.3 -1.3 -14.8 -1.4 -14.5 6.3 -34 l3.9 -10.3 8.5 -6.1 c4.7 -3.4 8.7 -5.9 8.9 -5.7 0.8 0.7 5.4 38.9 6.5 52.4 0.5 7.2 1 22 1 32.9 l0.2 19.8 -2.9 2.4 c-5.3 4.6 -12.8 9 -22.1 13.2 -5 2.2 -9.4 4.1 -9.6 4.1 -0.3 0 -7.3 2.9 -15.8 6.4 -19.8 8.2 -20.3 8.4 -19.3 6z"/>
  <path d="M457.6 144.5 c-0.8 -0.8 -1.9 -1.5 -2.5 -1.5 -0.6 0 -1.1 -0.4 -1.1 -1 0 -0.5 -0.7 -1 -1.5 -1 -1 0 -1.5 -1 -1.5 -3 l0 -2.9 7.5 4.7 c4.1 2.6 7.5 5 7.5 5.5 0 1.3 -6.8 0.7 -8.4 -0.8z"/>
 </g>
 <g fill="#b58b42">
  <path d="M394.2 846.9 l0.3 -115.4 5.1 -1.7 c4.9 -1.6 186.5 -77.6 187.3 -78.4 0.2 -0.2 0.1 -0.7 -0.2 -1.1 -0.9 -0.8 2.8 -2.3 -95.7 38.9 -83.5 35 -95.2 39.8 -97.1 39.8 -2 0 0.1 -1.8 2.8 -2.4 1.6 -0.4 21.4 -8.4 44 -17.9 31.2 -13 41.3 -17.6 41.3 -18.9 0 -2.4 1.6 -3.1 4.1 -1.8 1.7 0.9 3.1 0.7 7.2 -1.2 2.9 -1.4 8.5 -3.8 12.4 -5.4 4.9 -1.9 7.3 -3.4 7.3 -4.5 0 -2.1 2 -2.9 6.8 -2.9 2.5 0 14.1 -4.4 34.6 -13 17 -7.2 32.2 -13 33.8 -13 l2.8 0 -0.4 35.8 c-0.2 19.6 -0.5 36.8 -0.6 38.2 -0.1 1.4 0.1 5.9 0.5 10 0.7 6.7 0.7 7.4 -0.7 6.2 -1.2 -1 -1.8 -0.9 -2.8 0.3 -1 1.2 -0.9 2.2 0.3 5.4 1.4 3.3 1.6 11.3 1.8 55.6 l0.1 51.6 -10.3 5.8 c-5.7 3.2 -40.5 23.2 -77.3 44.4 -36.7 21.3 -67.2 38.7 -67.6 38.7 -0.4 0 -8.9 4.7 -18.9 10.5 -9.9 5.8 -18.8 10.8 -19.6 11.1 -1.3 0.6 -1.5 -11.8 -1.3 -114.7z"/>
  <path d="M391.5 846 c0 -63.5 0.1 -89.5 0.2 -57.8 0.2 31.8 0.2 83.8 0 115.5 -0.1 31.8 -0.2 5.8 -0.2 -57.7z"/>
  <path d="M485.8 685.7 c-4 -1.6 -3.6 -3.7 0.7 -3.7 3.1 0 3.5 0.3 3.5 2.5 0 2.7 -0.2 2.8 -4.2 1.2z"/>
 </g>
 <g fill="#b39659">
  <path d="M320.2 803.8 c-1.6 -1.6 -1.5 -9.5 0.3 -24.8 0.8 -6.9 1.5 -14.1 1.5 -16.1 0 -3.5 -0.2 -3.8 -5.2 -5.5 -3 -1.1 -5.3 -2.6 -5.6 -3.6 -0.3 -1.3 -1.5 -1.8 -4.2 -1.8 -2.1 0 -5.4 -0.7 -7.5 -1.6 -2 -0.8 -3.9 -1.4 -4 -1.2 -0.2 0.2 -0.5 1.9 -0.7 3.8 -0.3 3.4 -0.2 3.6 6.7 7 l7 3.5 0 4.5 0 4.5 -4.2 0.3 c-2.2 0.2 -5.8 -0.4 -7.8 -1.2 l-3.6 -1.5 0.3 4.1 c0.3 4.6 0.3 4.5 10.3 9.1 l5 2.2 0 5 0 5 -4.5 -0.1 c-3 -0.1 -7.4 -1.5 -13.4 -4.3 l-8.9 -4.1 0.8 -17.8 c0.4 -9.7 1 -21.5 1.4 -26.2 l0.6 -8.5 4.4 -0.3 c5 -0.4 19.5 4.8 22.3 7.9 0.9 1.1 2.9 1.9 4.6 1.9 2.6 0 27.4 9.1 31 11.3 0.7 0.5 1.2 2.9 1.2 5.8 l0 4.9 -5.1 0 c-2.8 0 -5.8 -0.4 -6.8 -1 -1.7 -0.9 -2 0.2 -3.6 14.3 -3.1 27.6 -2.4 25.2 -7 25.5 -2.3 0.2 -4.6 -0.3 -5.3 -1z"/>
  <path d="M259.5 778 c-5.7 -2.9 -10.2 -7.6 -13.3 -14 -2.3 -4.8 -2.7 -7 -3.1 -16.8 -0.5 -17.8 2.9 -23.7 14.3 -24.9 6.6 -0.7 14.4 1.7 19.2 5.9 3 2.7 3.4 3.6 3.4 7.9 l0 4.9 -4.1 0 c-2.7 0 -5.1 -0.8 -7.2 -2.4 -5.7 -4.3 -8.2 -4.8 -11 -2.2 -3.5 3.2 -4.9 8.8 -3.6 14.4 1.4 6.2 3.2 9.3 7.8 13.5 4.3 3.9 5.6 4.4 6.6 2.6 1.4 -2.1 -0.5 -5.5 -3.7 -7 -3.1 -1.3 -3.3 -1.8 -3.6 -6.6 l-0.3 -5.3 3.5 0 c4.2 0 11.3 2.6 13.9 5 1.7 1.6 1.8 2.8 1 14.1 l-0.8 12.4 -7.5 0.2 c-5.8 0.2 -8.4 -0.2 -11.5 -1.7z"/>
  <path d="M223 761.9 c-1.4 -0.6 -4.2 -2.7 -6.3 -4.7 -5.7 -5.6 -6.8 -10.5 -7 -33.4 l-0.2 -19.3 4.5 0 4.5 0 1 18.5 c1.1 19.6 2.1 23.2 6.7 26.4 2 1.4 2.4 1.4 3.8 0.1 1.2 -1.3 1.6 -5 1.8 -19 l0.4 -17.5 4.3 0 c3 0 4.5 0.5 4.9 1.6 1 2.7 0.7 37.7 -0.4 41.6 -0.6 2.1 -2.1 4.4 -3.3 5.3 -2.4 1.7 -10.8 1.9 -14.7 0.4z"/>
  <path d="M193.6 748.6 c-5.1 -1.9 -11.1 -7.9 -14.1 -14.1 -5.6 -11.4 -5.5 -30.7 0.2 -36.7 2.4 -2.5 3.3 -2.8 9.5 -2.8 7.2 0 11.3 1.4 15.6 5.3 1.7 1.6 2.2 3.1 2.2 6.9 l0 4.8 -3.5 0 c-2.1 0 -5.3 -1.2 -8.2 -3 l-4.8 -3.1 -2.2 2.6 c-4.6 5.3 -2.1 17.9 5 25.3 3.3 3.4 6.4 4.4 5.3 1.6 -0.3 -0.9 -0.6 -1.9 -0.6 -2.4 0 -0.4 -1.6 -1.7 -3.5 -2.9 -3.2 -1.8 -3.5 -2.4 -3.5 -6.6 l0 -4.5 3.9 0 c2.2 0 5.9 0.9 8.4 1.9 l4.5 1.9 0.7 11.8 c0.5 7.3 0.4 12.4 -0.2 13.3 -1.3 2.1 -9.6 2.5 -14.7 0.7z"/>
  <path d="M409 661 c0 -0.5 -1.1 -1 -2.5 -1 -1.4 0 -2.5 -0.4 -2.5 -1 0 -0.5 -1.1 -1 -2.5 -1 -1.4 0 -2.5 -0.4 -2.5 -1 0 -0.5 -1.1 -1 -2.4 -1 -1.4 0 -3.1 -0.7 -4 -1.5 -0.8 -0.8 -2.4 -1.5 -3.5 -1.5 -1.2 0 -2.1 -0.4 -2.1 -1 0 -0.5 -1.1 -1 -2.5 -1 -1.4 0 -2.5 -0.4 -2.5 -1 0 -0.5 -1.1 -1 -2.5 -1 -1.4 0 -2.5 -0.4 -2.5 -1 0 -0.5 -1.1 -1 -2.5 -1 -1.4 0 -2.5 -0.4 -2.5 -1 0 -0.5 -1.1 -1 -2.5 -1 -1.4 0 -2.5 -0.4 -2.5 -1 0 -0.5 -1.1 -1 -2.5 -1 -2 0 -2.5 -0.5 -2.5 -2.6 0 -1.4 0.4 -2.4 0.9 -2.2 12.9 4.5 53.1 21.6 53.1 22.6 0 0.7 -1.4 1.2 -3.5 1.2 -1.9 0 -3.5 -0.4 -3.5 -1z"/>
  <path d="M388.3 646.2 c-14.5 -5.9 -26.3 -11.3 -26.3 -11.9 0 -0.8 1.4 -1.3 3.5 -1.3 1.9 0 3.5 0.5 3.5 1 0 0.6 1.1 1 2.5 1 1.4 0 2.5 0.5 2.5 1 0 0.6 1.1 1 2.5 1 1.4 0 2.5 0.5 2.5 1 0 0.6 1.1 1 2.5 1 1.4 0 2.5 0.5 2.5 1 0 0.6 1.1 1 2.4 1 1.4 0 3.1 0.7 4 1.5 0.8 0.8 2.4 1.5 3.5 1.5 1.2 0 2.1 0.5 2.1 1 0 0.6 1.1 1 2.5 1 1.4 0 2.5 0.5 2.5 1 0 0.6 1.1 1 2.5 1 1.4 0 2.5 0.5 2.5 1 0 0.6 1.1 1 2.5 1 1.4 0 2.5 0.5 2.5 1 0 0.6 1.1 1 2.5 1 2 0 2.5 0.5 2.5 2.5 0 1.4 -0.3 2.5 -0.7 2.4 -0.5 0 -12.6 -4.9 -27 -10.7z"/>
  <path d="M185.3 649.3 c-0.7 -0.2 -1.3 -1.6 -1.3 -3 0 -1.3 0.3 -2.3 0.8 -2.1 0.4 0.2 2.4 1 4.5 1.8 4.6 1.8 4.9 4 0.5 3.9 -1.8 0 -3.9 -0.3 -4.5 -0.6z"/>
  <path d="M188.8 643.4 c-3.8 -2 -3.5 -3.4 0.7 -3.4 3.1 0 3.5 0.3 3.5 2.5 0 2.9 -0.5 3 -4.2 0.9z"/>
  <path d="M288 610.4 c0 -2.1 0.3 -2.5 1.8 -1.9 0.9 0.4 2.5 1 3.5 1.2 3.2 1 1.9 3.3 -1.8 3.3 -3.1 0 -3.5 -0.3 -3.5 -2.6z"/>
  <path d="M290.8 606.7 c-4 -1.6 -3.6 -3.7 0.7 -3.7 3.1 0 3.5 0.3 3.5 2.5 0 2.7 -0.2 2.8 -4.2 1.2z"/>
  <path d="M246 593.4 c0 -2.1 0.3 -2.5 1.8 -1.9 0.9 0.4 2.5 1 3.5 1.2 3.2 1 1.9 3.3 -1.8 3.3 -3.1 0 -3.5 -0.3 -3.5 -2.6z"/>
  <path d="M248.8 589.7 c-4 -1.6 -3.6 -3.7 0.7 -3.7 3.1 0 3.5 0.3 3.5 2.5 0 2.7 -0.2 2.8 -4.2 1.2z"/>
 </g>
 <g fill="#71d06d">
  <path d="M640.7 827.8 c-5.5 -6.8 -17.2 -24.7 -20.7 -31.8 -1.8 -3.6 -4 -7.6 -5 -9 -3.2 -4.6 -17 -30.9 -20.6 -39.2 -1.9 -4.6 -4.1 -9 -4.9 -9.8 -1.9 -2.2 -3.9 -15.1 -3 -19.1 0.5 -1.9 1 -17.9 1.2 -35.7 0.4 -34.9 0.5 -34.4 -4.9 -32.3 -2 0.8 -4.7 0.2 -13.1 -2.7 -9.3 -3.2 -10.3 -3.8 -9.4 -5.3 0.8 -1.3 0.8 -2.5 -0.1 -4.3 -1.1 -2.4 -1 -2.6 1.3 -2.6 1.3 0 5.5 1.2 9.2 2.6 3.8 1.4 9.5 3.4 12.8 4.4 3.3 1.1 6.9 2.6 8 3.3 1.8 1.4 2.2 0.9 7.3 -7.7 7.5 -12.4 13.7 -25.8 15.8 -33.6 4.8 -18.5 -1.1 -39.6 -15.4 -55.1 -25.1 -27.1 -59 -29.3 -87.1 -5.6 -4.1 3.4 -8.1 7.6 -9 9.3 l-1.6 3.1 -14.5 -13.8 c-15.6 -14.8 -23.5 -21.2 -34.2 -27.4 -3.6 -2.1 -6.9 -4.7 -7.1 -5.7 -0.6 -2.2 5.5 -46.1 7.8 -56.3 2.5 -10.8 4.6 -16.8 6.8 -19.3 2.3 -2.5 1.3 -4.7 -1.9 -4 -5.2 1 -11.1 22.3 -14.9 53.3 -3.2 25.4 -3.2 25.8 -5.4 25 -3.5 -1.5 -10.9 -3.5 -18 -5 -6.1 -1.3 -7.7 -1.3 -8.8 -0.3 -2.2 2.3 0.1 3.7 8.6 5.3 23 4.4 38.8 13.8 64.6 38.8 l12 11.6 -3.6 0.1 c-2.2 0 -4.2 -0.6 -5 -1.6 -2 -2.5 -18.9 -16.6 -18.9 -15.9 0 0.4 6 7 13.4 14.8 7.4 7.8 18.5 20.3 24.7 27.7 6.2 7.4 13.4 16 15.9 19 2.6 3 8.8 11 13.9 17.7 5 6.7 9.5 12.4 10.1 12.8 1.1 0.7 1.4 5.5 0.3 5.5 -0.5 0 -8 -0.5 -16.8 -1 -36.9 -2.3 -64.8 -8.3 -93.3 -20.2 -8.6 -3.5 -46.1 -21.9 -48.7 -23.8 -0.5 -0.4 -6.6 -3.6 -13.5 -7.2 -6.9 -3.6 -16.8 -8.9 -22 -11.8 -5.2 -2.8 -11 -5.8 -12.8 -6.5 -1.7 -0.8 -3.2 -1.8 -3.2 -2.3 0 -2.3 7.4 -22 9 -23.7 2.9 -3.3 3.6 -5.1 11.5 -32.1 6.8 -22.9 13.8 -45.6 21 -67.9 1.3 -3.8 5.5 -13.5 9.4 -21.5 6.9 -14.1 7.2 -15 11.2 -35 5.4 -26.9 12.8 -56.4 16.9 -66.8 1.7 -4.5 4.8 -10.4 6.8 -13 2.8 -3.6 4.5 -8 7.9 -19.7 2.4 -8.2 7 -23.8 10.2 -34.5 3.3 -10.7 6.4 -22.4 7 -26 0.6 -3.6 1.5 -8.5 2.1 -11 1.7 -8 2.2 -13.8 1.1 -14.5 -0.7 -0.4 -1.1 -9.3 -1.1 -26.1 l0 -25.4 3.5 0 c2 0 6.3 1.4 9.6 3 7.4 3.8 22.8 9 26.4 9 1.5 0 4 0.8 5.6 1.7 2.2 1.3 3.2 1.4 4.1 0.5 0.9 -0.9 0.1 -4.3 -3.5 -14.9 -2.5 -7.6 -5 -16.3 -5.6 -19.3 -1.2 -6.3 -3.4 -38 -2.7 -38.8 1.5 -1.4 6.7 1.7 13.5 8.2 16.5 15.7 30.2 24.3 69.5 43.5 30.6 15.1 42.9 20.4 50.1 21.6 2.2 0.4 13.2 3.7 24.5 7.5 24.2 8 49.6 14.1 70.9 17 18.7 2.6 22.8 2.1 36.5 -4.4 6.3 -3 10.9 -4.6 13.5 -4.6 6.7 0 21 -4.8 39.6 -13.5 21.7 -10 31.2 -13.8 32.5 -13 2.7 1.7 4 11.5 4.7 34.5 0.9 34.6 -2.2 85.3 -6.1 98.5 -2.4 7.8 -8.1 38.5 -12.5 67 -3.2 20.3 -4.5 26.5 -6.1 28.5 -5.1 6.4 -28.9 54.5 -38.6 77.9 -3 7.3 -4.6 9.8 -6.8 11 -16.9 9.2 -66.9 46.8 -90.1 67.6 -6 5.4 -12.8 10.3 -20.2 14.4 -6.2 3.5 -11.7 6.9 -12.4 7.7 -1.2 1.5 -0.4 3.4 1.4 3.4 1.6 0 30.3 -16.4 39.2 -22.3 3.8 -2.5 7.2 -4.4 7.6 -4.1 0.4 0.2 -0.4 3.2 -1.7 6.7 -1.4 3.4 -4.5 12.5 -6.9 20.2 -7.8 25 -9.9 30.5 -11.4 30.5 -1.1 0 -1.3 -1.2 -0.7 -6.5 0.4 -3.6 0.3 -6.5 -0.2 -6.5 -1.9 0 -5.2 8.7 -21.1 56.2 l-16.8 50.3 0.2 10.5 c0.3 11.9 2.2 21.1 8.9 41.8 2.5 7.5 5 16.4 5.6 19.7 1.8 9.3 3 12.7 5.9 16.5 1.5 1.9 4.6 6.2 6.8 9.5 5.3 7.7 13.4 15.9 17.5 17.6 1.8 0.7 5 2.7 7.1 4.5 5 4.1 15.1 9.1 20.5 10 4.6 0.7 5.7 3 2 3.9 -1.3 0.2 -14.7 2.1 -29.8 4 -15.1 2 -30 4.2 -33.1 5 -3.1 0.8 -5.9 1.5 -6.2 1.5 -0.3 0 -2.1 -1.9 -4 -4.2z m0 -299.9 c1.7 -1.7 0.4 -3.9 -2.4 -3.9 -1.3 0 -5.6 -0.7 -9.4 -1.6 -12.7 -2.9 -36.1 -20.5 -49.1 -36.9 -8 -10 -24.9 -34 -32.4 -46 -14.7 -23.5 -25.5 -47.4 -38.2 -84.7 -6.1 -17.6 -13.2 -43.9 -13.2 -48.4 0 -2.8 -2.5 -4.3 -4.3 -2.5 -0.8 0.8 -0.6 3.6 0.8 10.7 1.5 7.5 1.6 10.1 0.8 12.2 -10.7 25.3 -14.5 36.5 -17.7 52.4 -2.2 10.5 -2.1 13.8 0.3 13.8 1.3 0 3.6 -3.2 8.2 -11.5 3.5 -6.4 8.3 -13.9 10.6 -16.8 2.4 -2.9 5.2 -6.9 6.2 -8.9 l1.8 -3.8 4.3 11.8 c17.2 47.5 29.9 71.7 56.9 108.5 17.7 24.1 27.1 33.8 42.3 44 11.4 7.6 17.1 10.2 26.3 12.1 4 0.8 7.1 0.6 8.2 -0.5z m-18.2 -126.4 c26.8 -7 48.7 -37.4 57.2 -79.5 2.2 -11 2.6 -15.1 2.6 -33.5 0 -23.4 -1.5 -34.4 -7.5 -52.5 -4.2 -13 -13.6 -31.1 -20.2 -39.1 -14.2 -17.3 -33.1 -25.8 -50.8 -22.9 -30.1 4.9 -53.3 35.6 -62.4 82.5 -3.5 18 -3.7 43.2 -0.4 61.5 10.3 57.6 44.8 93 81.5 83.5z m161.4 -16.5 c18.6 -9.4 31.1 -36.2 32.7 -69.5 1.1 -22.1 -2.6 -40.8 -11.3 -57.8 -10.3 -19.9 -25.8 -29.6 -40.6 -25.3 -17.6 5.1 -31.6 26.6 -36.7 56.6 -1.6 9.5 -1.7 31.2 -0.1 41 4.2 25.8 15.4 45.9 30.1 54.2 6 3.4 7.4 3.7 15 3.4 4.3 -0.2 8 -1.1 10.9 -2.6z m-98.9 -165.9 c0 -0.4 -2.7 -3.6 -6.1 -7.2 -6 -6.3 -22.9 -26.2 -28.1 -32.9 -2 -2.7 -2.9 -3.2 -3.8 -2.3 -0.7 0.6 -1 2.2 -0.7 3.5 0.7 2.4 18.1 23.6 29 35.2 5.7 6 6.8 6.8 8.1 5.7 0.9 -0.8 1.6 -1.7 1.6 -2z m66.4 -0.2 c5.6 -0.5 14.2 -1.7 19.3 -2.5 5.1 -0.8 9.6 -1.4 10 -1.3 2.2 0.4 3.3 -0.3 3.3 -2.1 0 -3.1 -2 -3.3 -13.2 -1.6 -5.7 0.9 -16.8 2.3 -24.8 3.2 -14.3 1.5 -18.1 2.8 -16.5 5.4 0.5 0.9 2.4 1 6.3 0.6 3 -0.4 10 -1.1 15.6 -1.7z"/>
  <path d="M226.7 802.2 c-1.7 -1.9 -2.4 -6.2 -0.9 -6.2 0.4 0.1 3.6 1.9 7.2 4 l6.5 4 -5.6 0 c-4.1 0 -6 -0.5 -7.2 -1.8z"/>
  <path d="M203.3 797.5 c-4 -1.2 -11.6 -4.7 -17 -7.7 -18.1 -10.2 -22.4 -12.2 -23.1 -11 -1.6 2.4 -29.9 -19 -38.6 -29.1 -9.7 -11.5 -16.3 -27.5 -16.5 -40.3 -0.4 -18.2 5.1 -30.9 19 -44.4 9.8 -9.4 12.7 -12 13.9 -12 0.6 0 1 6.4 1 16 0 10 -0.4 16 -1 16 -0.5 0 -1 -0.7 -1 -1.5 0 -2.7 -3.9 -1.7 -4.6 1.1 -0.5 1.8 -1.9 3.1 -5.1 4.5 -3.2 1.4 -4.3 2.4 -4.1 3.6 0.4 1.9 2.9 2.2 6.1 0.8 1.3 -0.5 1.7 -0.2 1.7 1.3 0 1.2 -0.9 2.3 -2 2.7 -2.7 0.9 -5.2 4.8 -4.4 6.9 0.9 2.2 3 2 4.8 -0.5 0.8 -1.2 1.9 -1.8 2.5 -1.5 0.5 0.4 3.8 4.8 7.2 9.9 15.4 23.1 29.3 40.1 49.6 60.8 17.8 18 20.3 21 20.3 23.7 0 3.7 0.5 3.7 -8.7 0.7z"/>
  <path d="M456.8 144.7 c-5.2 -2.9 -5.8 -3.5 -5.8 -6.5 l0 -3.3 3.3 2.5 c1.9 1.5 3.9 2.6 4.5 2.6 0.7 0 1.2 0.4 1.2 0.8 0 0.4 2 1.8 4.5 3 2.5 1.2 4.5 2.6 4.5 3.2 0 2.1 -6.7 0.8 -12.2 -2.3z"/>
 </g>
 <g fill="#d7bc82">
  <path d="M341.5 937 c-75.5 -35.7 -129.2 -61 -167.5 -79 -19 -9 -34.9 -16.6 -35.3 -17 -0.5 -0.4 -0.9 -16.9 -1 -36.7 l-0.2 -35.9 8.5 6.3 c22.3 16.5 68 34.3 88.1 34.3 6.7 0 13 -1.7 14.3 -3.8 0.9 -1.5 -0.4 -4.2 -2 -4.2 -4.1 0 -23.7 -12.5 -39.3 -25.1 -14.1 -11.3 -40.6 -37.6 -47.3 -46.9 -3 -4.1 -8.8 -12.4 -12.8 -18.4 l-7.4 -10.9 -0.2 -12.7 c-0.3 -21 -1.4 -55.3 -2 -59.2 l-0.6 -3.6 23.9 9.9 c13.1 5.4 25.2 10.6 26.8 11.3 1.7 0.8 12.9 5.5 25 10.5 50.6 20.7 177.9 74.1 178.7 74.9 0.4 0.4 0.7 52.3 0.6 115.3 l-0.3 114.5 -50 -23.6z m-15 -136.2 c0.2 -0.7 1.4 -9.8 2.6 -20.3 1.1 -10.4 2.5 -19.4 2.9 -19.9 0.6 -0.5 2.7 -0.2 5.2 0.7 2.4 1 5.1 1.7 6.1 1.7 2 0 2.3 -3.5 0.5 -4.7 -1.9 -1.2 -27.8 -11.3 -28.9 -11.3 -0.6 0 -0.9 1.2 -0.7 2.6 0.2 2.1 1.3 3 5.3 4.6 2.8 1.1 5.4 2.3 5.8 2.7 0.4 0.5 -0.2 10.1 -1.4 21.4 -1.8 16.8 -2 20.9 -0.9 22.2 1.5 1.8 2.9 1.9 3.5 0.3z m-21 -11.4 c-0.6 -0.9 -3.7 -2.7 -7 -4.1 -3.3 -1.4 -6.6 -3 -7.2 -3.5 -0.8 -0.7 -1.3 -3.6 -1.3 -8 0 -8.3 0.8 -8.9 8.5 -5.7 4.3 1.8 5.8 2 6.7 1.1 1.7 -1.7 0.1 -3 -7.5 -6.7 l-6.2 -3 0.3 -7.4 c0.1 -4.1 0.5 -7.7 0.7 -7.9 0.3 -0.3 3.7 0.7 7.6 2.3 5.3 2.1 7.3 2.5 8.2 1.6 0.8 -0.8 0.8 -1.7 0.2 -2.7 -1.3 -2 -18 -8.8 -19.9 -8.1 -1.4 0.6 -3 20.2 -3.1 38.6 l0 8.5 9.5 4.2 c6.2 2.8 9.8 4 10.5 3.3 0.6 -0.6 0.6 -1.5 0 -2.5z m-29.3 -22.4 c0.7 -10.4 0.4 -11.3 -4.7 -13.4 -7 -2.9 -7.7 -3 -7.3 -0.5 0.2 1.5 1.5 2.9 3.3 3.8 4 1.9 4.5 2.8 4.5 8.1 0 6.3 -1 7.4 -5.5 6.6 -4.6 -0.9 -11.2 -6.8 -13.6 -12.2 -4.2 -9.3 -3.3 -21.3 1.9 -26.1 3.6 -3.4 9.7 -2.7 15.8 1.6 5.2 3.6 6.4 3.8 6.4 1.2 0 -4.7 -13.6 -12 -19.6 -10.5 -8.4 2 -11.9 8.7 -11.2 21.7 0.3 6.4 1 9.7 3.1 13.8 4.8 9.8 13.5 16.1 21.7 15.6 l4.5 -0.2 0.7 -9.5z m-41.5 -8.5 c3.4 -2.4 4.3 -7.6 4.3 -24.2 0 -15.8 -0.3 -18.3 -2.5 -18.3 -1 0 -1.4 3.9 -1.7 17.4 -0.3 15.4 -0.5 17.6 -2.2 19.5 -2.4 2.6 -4.2 2.6 -8.3 0.1 -5.7 -3.4 -6.6 -6.6 -7.8 -27 -0.8 -15.3 -1.3 -18.5 -2.5 -18.5 -1.3 0 -1.5 2.4 -1.2 16.5 0.3 19.7 1.4 24.9 6.9 30.2 5.8 5.7 11 7.1 15 4.3z m-29.8 -12.9 c0.8 -1 1 -4.1 0.5 -10.6 l-0.7 -9.2 -4.4 -1.9 c-5.4 -2.3 -6.3 -2.4 -6.3 -0.4 0 0.9 1.5 2.5 3.4 3.6 3.5 2 4.6 4.2 4.6 9.4 0 4.9 -1.2 5.9 -5.2 4.6 -4.5 -1.5 -9.2 -6.4 -11.9 -12.5 -3 -6.8 -3.1 -18.5 -0.2 -22.4 3 -4 7.4 -4.1 13.5 -0.3 5.8 3.6 5.8 3.6 5.8 1.3 0 -3.9 -8.5 -9.2 -14.8 -9.2 -14 0 -14.3 28.8 -0.4 42.3 5.7 5.5 13.7 8.2 16.1 5.3z"/>
  <path d="M364 716.6 c-16.2 -6.8 -61 -25.5 -99.5 -41.6 -38.5 -16 -71.8 -30 -74 -30.9 -2.2 -1 -14.7 -6.2 -27.7 -11.6 -13.1 -5.4 -23.8 -10.2 -23.8 -10.8 0 -0.5 0.6 -0.7 1.3 -0.4 12.1 5 46.2 19.3 49.2 20.7 2.2 1 13.9 5.9 26 10.9 59.7 24.5 177.9 74.1 178.9 75.1 0.5 0.5 0.6 1 0.1 1 -0.6 -0.1 -14.3 -5.6 -30.5 -12.4z"/>
 </g>
 <g fill="#e2cea2">
  <path d="M364 716.6 c-16.2 -6.8 -61 -25.5 -99.5 -41.6 -38.5 -16 -71.8 -30 -74 -30.9 -2.2 -1 -14.7 -6.2 -27.7 -11.6 -21.6 -8.9 -26.6 -11.5 -22.3 -11.5 0.8 0 19.2 -9 41 -20.1 l39.6 -20.1 11.7 4.7 c6.4 2.6 13.1 5.3 14.7 6 1.7 0.7 11.1 4.5 21 8.5 9.9 4 19.4 7.8 21 8.5 1.7 0.7 18.3 7.5 37 15 18.7 7.5 35.6 14.4 37.5 15.2 1.9 0.8 4.5 1.9 5.8 2.4 1.2 0.5 3.4 1.4 5 2 3.5 1.5 7.2 3 9.7 3.9 1.1 0.4 4.6 2 7.8 3.4 3.2 1.4 6.2 2.6 6.7 2.6 0.6 0 1.8 0.4 2.8 0.9 0.9 0.5 2.9 1.4 4.5 2 1.5 0.6 3.7 1.5 5 2 1.2 0.5 17.5 7.1 36.2 14.6 18.7 7.5 35.3 14.3 36.9 15.1 3.3 1.6 5.6 1.8 5.6 0.6 0 -1.2 -0.4 -1.4 -37.5 -16.2 -18.1 -7.3 -35 -14.2 -37.5 -15.2 -2.5 -1.1 -5.5 -2.4 -6.7 -2.9 -1.3 -0.5 -3.5 -1.4 -5 -2 -1.6 -0.7 -3.7 -1.5 -4.8 -1.9 -1.1 -0.4 -4.6 -2 -7.8 -3.4 -3.2 -1.4 -6.2 -2.6 -6.7 -2.6 -0.6 0 -1.8 -0.4 -2.8 -0.9 -1.7 -0.9 -5.1 -2.3 -9.4 -4 -1.3 -0.4 -3.4 -1.3 -4.8 -1.9 -1.4 -0.5 -17.3 -7 -35.5 -14.3 -18.1 -7.2 -34.8 -14 -37 -14.9 -2.2 -1 -11.6 -4.8 -21 -8.5 -9.3 -3.8 -18.8 -7.6 -21 -8.5 -2.2 -1 -9.5 -3.9 -16.2 -6.6 -6.7 -2.7 -12.1 -4.9 -12 -5 0.1 0 14.6 -7.4 32.2 -16.3 17.6 -9 32.4 -16.7 33 -17.2 1.6 -1.6 3.6 -1.1 24.3 6.2 18.8 6.7 20.2 7.3 19.6 9.3 -0.4 1.1 -1.5 2.7 -2.5 3.4 -1 0.7 -1.6 1.9 -1.3 2.7 0.4 0.8 6.3 4.4 13.3 7.9 7 3.5 16.9 8.7 22.1 11.6 16.7 9.3 59.2 30.7 69.5 35 30.7 13 59.8 19 101.9 21.2 20.6 1.1 23.1 1 23.9 -0.4 0.9 -1.4 2.4 -1.1 12.9 2.5 6.5 2.3 11.4 4.4 11 4.7 -0.4 0.4 -15.1 6.6 -32.7 13.9 -17.6 7.3 -33.8 14.1 -36 15.1 -2.2 1 -9.6 4.2 -16.5 7 -6.9 2.8 -14.3 6 -16.5 6.9 -18.7 8.3 -86.9 36.1 -88.3 36.1 -0.4 -0.1 -14 -5.6 -30.2 -12.4z"/>
  <path d="M581.5 646.6 c-17.2 -6.2 -21.8 -8.1 -20.2 -8.4 2.7 -0.5 26.7 8 26.7 9.5 0 0.7 -0.1 1.2 -0.2 1.2 -0.2 -0.1 -3 -1.1 -6.3 -2.3z"/>
  <path d="M450.1 473 c0 -1.4 0.4 -3.2 0.9 -4 0.9 -1.3 1 -1.3 0.9 0 -0.1 0.8 -0.5 2.6 -0.9 4 l-0.8 2.5 -0.1 -2.5z"/>
 </g>
 <g fill="#dae2bf">
  <path d="M207 798.6 c-1.9 -0.7 -3.7 -2.1 -3.8 -3 -0.4 -1.6 -0.2 -1.6 3 -0.1 l3.3 1.7 -3.4 -3.6 -3.5 -3.6 3.6 0 c2.7 0 3.7 0.5 4.1 2 0.3 1.1 1.2 2 2.1 2 1.1 0 1.6 0.9 1.6 3 0 3.4 -1.2 3.7 -7 1.6z"/>
  <path d="M590 656 c0 -6.6 -0.6 -7.2 -9.5 -10 -2.2 -0.6 -7.6 -2.6 -12.1 -4.2 l-8 -3 -6.4 -10.2 c-15.8 -25.1 -19 -29.8 -27.9 -41.6 -10.5 -13.9 -21.7 -27.5 -25 -30.4 -1.1 -1.1 -2.1 -2.6 -2.1 -3.4 0 -2.6 4.2 -7.3 11.6 -13.2 13.3 -10.6 26.4 -15.3 42.4 -15.3 19.4 0 35.3 7.2 49.2 22.2 11.6 12.5 17.2 27.1 17.2 44.6 -0.1 12.4 -1.9 19.6 -8.6 33.5 -2.8 5.8 -5 10.8 -5 11.3 0.1 0.4 -0.3 0.7 -1 0.7 -0.6 0 -0.9 0.3 -0.5 0.6 0.3 0.3 -0.3 1.4 -1.4 2.5 -1.1 1.1 -1.7 2.4 -1.4 2.9 0.4 0.6 0.2 1 -0.4 1 -1.3 0 -5.2 7.5 -4.4 8.4 0.4 0.3 0.1 0.6 -0.5 0.6 -1.4 0 -4.4 5.5 -3.5 6.4 0.4 0.3 0.1 0.6 -0.6 0.6 -0.7 0 -0.9 0.5 -0.6 1 0.3 0.6 0.1 1 -0.4 1 -0.7 0 -1.1 -2.4 -1.1 -6z"/>
  <path d="M544.2 637 c-1.1 -1.8 -1 -2 1.8 -2 2.3 0 3 0.4 3 2 0 1.2 -0.7 2 -1.8 2 -0.9 0 -2.3 -0.9 -3 -2z"/>
  <path d="M505 573 c0 -2.5 -0.4 -3 -2.3 -3 -3.2 0 -10.7 -8 -10.7 -11.4 0 -1.4 0.4 -2.6 0.9 -2.6 1 0 13.1 12.9 16.2 17.2 l2 2.8 -3 0 c-2.8 0 -3.1 -0.3 -3.1 -3z"/>
  <path d="M447.3 492 c0.3 -1.9 1.2 -7.3 1.9 -12 1 -6.4 1.4 -7.6 1.6 -4.8 0.3 3.6 -2.4 18.7 -3.5 19.8 -0.3 0.3 -0.3 -1.1 0 -3z"/>
  <path d="M450.8 468 c0.2 -1.6 0.6 -3 0.8 -3 0.2 0 0.4 1.4 0.4 3 0 1.7 -0.4 3 -0.8 3 -0.5 0 -0.7 -1.3 -0.4 -3z"/>
  <path d="M459.3 146.6 c-7.6 -4.1 -9.3 -5.7 -9.3 -9 0 -3.1 1.4 -3.3 3.3 -0.6 0.7 1.1 5.1 3.9 9.7 6.3 4.6 2.5 8.6 4.9 8.8 5.6 0.8 2.3 -6.4 1 -12.5 -2.3z"/>
 </g>
 <g fill="#c2fff7">
  <path d="M640.7 381 c-3.4 -3.7 -3.8 -9 -0.7 -9 1.3 0 2.4 -1 3 -2.5 0.5 -1.4 1.5 -2.5 2.3 -2.5 2.8 0 9.7 -16.3 9.7 -23 0 -2.2 0.4 -4 0.9 -4 0.4 0 1.1 -3.2 1.5 -7.2 0.4 -4 1.2 -7.5 1.8 -7.9 0.8 -0.5 1.2 -3.8 1.1 -9.8 0 -5.7 0.3 -9.1 1 -9.1 0.7 0 0.8 -5 0.3 -15.5 -0.4 -10.2 -0.3 -15.5 0.4 -15.5 0.6 0 1 -4.2 1 -11 0 -6.7 -0.4 -11 -1 -11 -0.5 0 -1 -1.6 -1 -3.5 0 -1.9 0.4 -3.5 0.9 -3.5 0.5 0 0.7 -1.8 0.4 -3.9 -0.6 -4.6 1.1 -7.1 4.9 -7.1 2.9 0 4.3 3.9 7.9 21.5 3.2 15.7 3.3 46.9 0.1 63 -5.1 25.6 -16 49.2 -27.9 60.8 l-3.9 3.7 -2.7 -3z"/>
  <path d="M659 374.5 c0 -0.6 0.5 -1.6 1 -2.1 0.6 -0.6 2.9 -4.4 5 -8.5 2.2 -4.1 4 -7 4 -6.6 0 1.1 -5.4 11.5 -7.9 15.2 -1.2 1.7 -2.1 2.5 -2.1 2z"/>
  <path d="M798.7 350.4 c-0.4 -0.4 -0.7 -2 -0.7 -3.6 0 -1.5 -0.4 -2.8 -1 -2.8 -0.5 0 -1 -2.5 -1 -5.5 0 -3.1 0.4 -5.5 1 -5.5 0.7 0 0.8 -1.8 0.4 -5.1 -0.5 -3.6 -0.3 -5.3 0.6 -5.9 1.7 -1.1 2.8 -30 1.1 -30 -0.8 0 -1.1 -2 -0.9 -6.7 l0.3 -6.8 4.2 -0.3 c4 -0.3 4.3 -0.1 5.7 3.2 3.9 9.3 4.6 37.8 1.2 53.1 -3.1 14.3 -3.9 16 -7.2 16.3 -1.6 0.2 -3.3 0 -3.7 -0.4z"/>
 </g>
 <g fill="#ffffff">
  <path d="M708.3 820.5 c-6.3 -1.4 -15.1 -5.8 -20.1 -10 -2 -1.7 -5.2 -3.7 -7 -4.4 -4.1 -1.7 -12.2 -9.9 -17.5 -17.6 -2.2 -3.3 -5.3 -7.6 -6.8 -9.5 -2.9 -3.8 -4.1 -7.2 -5.9 -16.5 -0.6 -3.3 -3.1 -12.2 -5.6 -19.7 -6.4 -19.9 -8.4 -29 -8.9 -40.6 -0.3 -5.7 -0.7 -10.7 -0.9 -11.1 -1 -1.5 2 -11.1 18.1 -58.9 16.4 -48.8 19.9 -57.2 23.8 -57.2 2.6 0 3.8 4 3.2 10.9 -0.6 6.4 -2.3 11.7 -16.6 50.6 -5.9 16 -17.9 41.5 -19.6 41.5 -1.3 0 -3.5 4.2 -3.5 6.6 0 0.8 0.7 1.7 1.5 2 0.8 0.4 2.6 4.4 4.1 9.3 1.4 4.7 4.9 15.8 7.9 24.6 2.9 8.9 6.5 22.4 7.9 30 1.5 7.7 3.5 18.1 4.4 23 l1.7 9 4.8 3 c2.7 1.7 13.7 8.7 24.4 15.8 10.7 7 21.8 13.9 24.6 15.4 2.9 1.5 4.5 2.8 3.7 3 -8.2 1.6 -13.2 1.8 -17.7 0.8z"/>
  <path d="M217 801.4 c-25.9 -6.8 -52 -18.5 -59.6 -26.6 -7.4 -7.9 -7.2 -8.1 2.4 -3.4 8.6 4.1 15.3 7.7 39.1 20.5 5.2 2.8 9.6 5 9.7 4.8 0.2 -0.1 -8.8 -9.5 -19.9 -20.7 -22.5 -22.8 -37 -41 -43.8 -54.8 -2.2 -4.6 -3.9 -8.5 -3.7 -8.8 0.2 -0.2 4.7 5.6 10 12.9 5.2 7.2 12.6 16.5 16.4 20.6 11 11.9 31.9 30.6 44.9 40.3 6.6 4.9 14.4 10.9 17.3 13.3 l5.3 4.5 -4.3 0 c-2.4 -0.1 -8.6 -1.2 -13.8 -2.6z"/>
  <path d="M543.3 635.8 c-1.6 -1.8 -6.5 -8 -10.8 -13.8 -4.3 -5.8 -9.9 -13 -12.5 -16 -2.5 -3 -9.7 -11.6 -15.9 -19 -6.3 -7.4 -17.9 -20.5 -26 -29.1 -13.1 -13.9 -26 -30.3 -24.9 -31.4 0.9 -1 16.9 9.8 26.5 17.9 24.3 20.4 43.7 44.1 66.7 81.4 4.2 6.8 7.6 12.6 7.6 12.8 0 0.2 -1.7 0.4 -3.8 0.4 -3 0 -4.5 -0.7 -6.9 -3.2z"/>
  <path d="M716 633.5 c0 -0.7 8.1 -5.7 8.5 -5.3 0.2 0.2 -1.6 1.6 -4 3.1 -2.5 1.4 -4.5 2.4 -4.5 2.2z"/>
  <path d="M730.6 609.8 c-0.3 -6.2 -1.3 -23.7 -2.1 -38.8 -1.4 -27.3 -2.1 -35.8 -3.2 -43.5 -0.3 -2.2 -0.3 -3.8 0 -3.5 0.5 0.5 2.6 15.5 5.2 38.5 1 8 2.2 58.5 1.4 58.5 -0.3 0 -0.9 -5.1 -1.3 -11.2z"/>
  <path d="M644.9 567.3 c3.5 -3 11.1 -7 11.1 -5.8 0 0.4 -11.6 7.7 -14 8.9 -0.8 0.4 0.5 -1 2.9 -3.1z"/>
  <path d="M672.7 541.2 c11.7 -11.5 43.5 -37.6 61.3 -50.3 12.5 -8.9 31.5 -21.8 35.6 -24 2.2 -1.2 3.8 -3.7 6.8 -11 9.7 -23.4 33.5 -71.5 38.6 -77.9 1.6 -2 2.9 -8.2 6.1 -28.5 4.9 -31.6 10.1 -59.1 13.4 -70.5 2.1 -7.2 2.7 -12.9 4 -37.5 0.8 -15.9 1.5 -34.4 1.5 -41 0 -10.8 -1.8 -45.6 -2.3 -46.1 -0.1 -0.1 -9.6 4.5 -21.2 10.2 -25.8 12.7 -36.8 16.5 -48.7 17.2 -5.7 0.3 -8.8 0.1 -8.8 -0.6 0 -1.4 11.9 -6.2 29.1 -11.6 8.1 -2.5 21.8 -7.3 30.5 -10.7 8.8 -3.4 16.8 -6.2 17.9 -6.2 5 -0.4 8.1 22.6 7.1 53.3 -1.3 37.1 -3.8 65.4 -9.2 101.4 -11.6 77.7 -25.1 131.5 -38.3 152.8 -3.1 5 -4.8 6.5 -14.1 11.9 -14 8.3 -42.4 27.1 -53 35 -22.4 16.8 -49.7 35.4 -61.5 41.8 l-6 3.3 11.2 -11z"/>
  <path d="M344.1 545.8 c0.6 -2.4 4.1 -13.7 7.9 -25.3 3.8 -11.5 9.6 -30.5 12.9 -42 3.3 -11.6 9 -29.8 12.7 -40.5 8 -23.3 12.1 -37.1 17.5 -58.5 2.2 -8.8 7.8 -27.5 12.4 -41.5 4.6 -14 10 -31.1 12 -38 5.9 -20.1 22.5 -73 25 -79.5 1.2 -3.3 3.6 -8.7 5.3 -12 2.6 -5 2.9 -6.2 1.8 -7.5 -0.7 -0.8 -3.8 -17.2 -7 -36.5 -3.1 -19.2 -6 -35.9 -6.3 -36.9 -0.4 -1.5 1.2 -0.7 6.3 2.9 3.8 2.7 8.1 6.2 9.5 7.7 1.5 1.5 5.8 4.3 9.5 6.1 8.6 4.1 27.3 15.2 31 18.4 l2.9 2.4 -7 -0.6 c-7.9 -0.7 -21.5 -5 -30.4 -9.5 -3.3 -1.6 -6.3 -3 -6.6 -3 -0.3 0 -0.5 11.1 -0.5 24.8 0.1 21.9 0.2 24.5 1.5 22.8 1.4 -1.9 1.5 -1.8 1.5 1 0 1.7 -1 7.5 -2.2 13 -1.2 5.4 -2.2 12 -2.3 14.6 -0.2 2.7 -0.7 6 -1.3 7.5 -1.6 4.2 -8.7 27.3 -15.1 49.3 -4.7 16 -6.4 20.4 -9.3 24.2 -2 2.6 -5.1 8.5 -6.8 13 -4.1 10.4 -11.5 39.9 -16.9 66.8 -4 20 -4.3 20.9 -11.2 35 -3.9 8 -8.1 17.7 -9.4 21.5 -7.3 22.5 -14.3 45.1 -21 68 -7.5 25.6 -10.7 33.5 -14.5 35.5 -2.8 1.5 -2.9 1.4 -1.9 -3.2z"/>
  <path d="M441.7 488 c-2.6 -9.6 1.8 -36.2 7.3 -44.5 2.5 -3.7 2.5 -2.7 0.1 7.7 -1.1 4.6 -2.9 14.8 -4.1 22.8 -2.5 17.3 -2.5 17.1 -3.3 14z"/>
  <path d="M448.9 481.2 c0.5 -3.4 0.6 -3.5 0.9 -0.8 0.2 1.6 0 3.2 -0.5 3.7 -0.5 0.5 -0.7 -0.7 -0.4 -2.9z"/>
  <path d="M597.8 396.1 c-24.6 -7.9 -44.5 -38 -51.9 -78.6 -3.2 -17.9 -3 -43.2 0.5 -61.1 7.9 -39.5 25.9 -66.8 50.1 -75.6 8.4 -3 20.8 -2.9 28.8 0.2 14.4 5.5 27.5 18.4 36.5 36.1 5.9 11.8 11.5 27.2 8.3 23 -2.6 -3.4 -4.8 -1.3 -4.2 4.2 0.2 2.6 -0.1 4.2 -1 4.8 -1 0.6 -1.1 0.9 -0.1 0.9 1.8 0 1.8 28 0 28 -0.9 0 -0.8 0.4 0.2 1 0.8 0.5 1.1 1 0.5 1 -0.6 0 -0.9 5.3 -0.7 14.5 0.2 8 0 14.5 -0.5 14.5 -0.4 0 -0.9 4.2 -0.9 9.2 -0.1 5.1 -0.6 9.4 -1.1 9.5 -0.5 0.2 -0.7 1.7 -0.5 3.3 0.2 1.7 0 3 -0.4 3 -0.5 0 -0.9 1.9 -1 4.2 0 2.3 -0.5 4.3 -1.1 4.5 -0.7 0.3 -0.9 1.1 -0.7 1.8 1.6 4 -7.2 24.9 -10.8 25.8 -1.2 0.4 -1.9 0.9 -1.5 1.3 1.1 1.1 -1.3 3.4 -3.5 3.4 -1.7 0 -1.6 0.3 0.7 2.7 1.4 1.5 2.5 3.1 2.5 3.4 0 1.1 -7 6.9 -12 10.1 -10.3 6.5 -24.9 8.5 -36.2 4.9z m-2.4 -78.3 c0.3 -5.7 0.8 -17 1.1 -25.3 0.7 -17.3 2.7 -31.6 5.1 -36.4 1.9 -3.8 1 -6.6 -2.2 -6.6 -2.1 0 -3.6 6 -6.9 27.8 -1.8 11.2 -3.3 46.3 -2.2 49.2 0.4 0.8 1.5 1.5 2.6 1.5 1.7 0 2 -1 2.5 -10.2z"/>
  <path d="M761.2 380.4 c-13.2 -6.6 -23.9 -25.7 -28.3 -50.4 -1.8 -10.4 -1.6 -32.5 0.5 -43.3 4.4 -23.1 13.8 -39.5 27.2 -47.3 14.3 -8.4 31.8 1.3 41.8 23.1 4.7 10.1 6.7 17.8 9 34.2 0.2 1.4 -0.1 2 -1.1 1.6 -0.7 -0.3 -1.3 -1.2 -1.3 -1.9 0 -2.1 -4 -13.7 -5.1 -14.9 -0.6 -0.5 -1.3 -0.5 -2.1 0.3 -0.9 0.9 -0.9 1.2 0 1.2 0.7 0 1.2 1.1 1.2 2.5 0 1.4 -0.6 2.5 -1.2 2.5 -0.9 0 -0.9 0.3 0.1 0.9 1.1 0.7 1.3 4.1 0.9 18.2 -0.3 9.5 -0.9 17.4 -1.4 17.6 -0.5 0.2 -0.7 2.8 -0.6 5.8 0.3 3.5 0 5.5 -0.7 5.5 -0.6 0 -1.1 1.1 -1.1 2.5 0 1.4 0.4 2.5 0.9 2.5 0.6 0 1.1 1.4 1.3 3.2 0.2 1.7 0.8 3.3 1.5 3.5 1.6 0.6 3.4 -3 5.4 -11.2 1 -3.8 1.8 -6.1 1.8 -5 0.1 1.1 -1 6.2 -2.4 11.2 -6.4 24.2 -20.9 40.3 -36.1 40.3 -3.4 0 -6.7 -0.8 -10.2 -2.6z m1.8 -42.3 c0.5 -1.1 1 -7.9 1 -15.2 0 -7.3 0.5 -19.6 1.2 -27.3 1.7 -20.2 1.7 -20 -0.9 -20.4 -1.4 -0.2 -2.3 0.3 -2.7 1.5 -1.9 6.3 -4.9 47.1 -4 55.1 0.9 7.8 3.1 10.4 5.4 6.3z"/>
  <path d="M482.5 371 c1.2 -6 6.5 -21.7 10.3 -30.8 l3.6 -8.7 2.3 7.3 c1.6 5.2 2 7.6 1.2 8.5 -0.6 0.7 -2 2.8 -3.2 4.9 -1.2 2 -5.1 7.8 -8.5 13 -5.4 7.8 -6.3 8.8 -5.7 5.8z"/>
  <path d="M736.2 360.5 c-1.7 -3.7 -1.4 -4.5 0.4 -1.2 0.9 1.6 1.4 3.1 1.1 3.3 -0.2 0.2 -0.9 -0.7 -1.5 -2.1z"/>
  <path d="M811.3 315.5 c0 -3.3 0.2 -4.5 0.4 -2.7 0.2 1.8 0.2 4.5 0 6 -0.2 1.5 -0.4 0 -0.4 -3.3z"/>
  <path d="M610.1 164.4 c-13.7 -4.6 -67 -30.6 -81.6 -39.7 -12.7 -7.9 -25.8 -18.2 -32.2 -25.1 l-5.9 -6.5 0.3 6.2 c0.5 8.8 3.3 40.7 3.9 43.7 1.2 6.7 -2.8 -6.5 -5.2 -16.8 -1.8 -8.1 -2.8 -15.9 -3.2 -25.1 l-0.5 -13.4 9.9 5.2 c5.4 2.9 16.2 9.4 23.9 14.5 7.7 5.1 18.1 11.8 23 14.9 5 3.1 13.3 8.8 18.5 12.7 12.1 9 19.6 12.6 46.3 22.5 11.9 4.4 21.7 8.3 21.7 8.8 0 1.7 -11.9 0.5 -18.9 -1.9z"/>
 </g>
</svg>